<svg width="1657" height="151" viewBox="0 0 1657 151" fill="none" xmlns="http://www.w3.org/2000/svg">
<path d="M20.7487 18.416V66.88H73.5807V82.48H20.7487V132.4H79.8207V148H1.82069V2.816H79.8207V18.416H20.7487ZM126.973 3.02399V94.752C126.973 107.648 130.093 117.216 136.333 123.456C142.712 129.696 151.517 132.816 162.749 132.816C173.843 132.816 182.509 129.696 188.749 123.456C195.128 117.216 198.317 107.648 198.317 94.752V3.02399H217.245V94.544C217.245 106.608 214.819 116.8 209.965 125.12C205.112 133.301 198.525 139.403 190.205 143.424C182.024 147.445 172.803 149.456 162.541 149.456C152.28 149.456 142.989 147.445 134.669 143.424C126.488 139.403 119.971 133.301 115.117 125.12C110.403 116.8 108.045 106.608 108.045 94.544V3.02399H126.973ZM362.805 148H343.877L267.749 32.56V148H248.821V2.816H267.749L343.877 118.048V2.816H362.805V148ZM413.999 18.416V66.88H466.831V82.48H413.999V132.4H473.071V148H395.071V2.816H473.071V18.416H413.999ZM520.639 3.02399V148H501.711V3.02399H520.639ZM629.235 148L594.707 88.72H571.827V148H552.899V3.02399H599.699C610.653 3.02399 619.875 4.896 627.363 8.64C634.989 12.384 640.675 17.4453 644.419 23.824C648.163 30.2027 650.035 37.4827 650.035 45.664C650.035 55.648 647.123 64.4533 641.299 72.08C635.613 79.7067 627.016 84.768 615.507 87.264L651.907 148H629.235ZM571.827 73.536H599.699C609.96 73.536 617.656 71.04 622.787 66.048C627.917 60.9173 630.483 54.1227 630.483 45.664C630.483 37.0667 627.917 30.4107 622.787 25.696C617.795 20.9813 610.099 18.624 599.699 18.624H571.827V73.536ZM776.374 45.456C776.374 57.52 772.214 67.5733 763.894 75.616C755.712 83.52 743.163 87.472 726.246 87.472H698.374V148H679.446V3.02399H726.246C742.608 3.02399 755.019 6.97599 763.478 14.88C772.075 22.784 776.374 32.976 776.374 45.456ZM726.246 71.872C736.784 71.872 744.55 69.584 749.542 65.008C754.534 60.432 757.03 53.9147 757.03 45.456C757.03 27.568 746.768 18.624 726.246 18.624H698.374V71.872H726.246ZM911.595 3.02399V148H892.667V82.272H818.827V148H799.899V3.02399H818.827V66.672H892.667V3.02399H911.595ZM1009.64 149.456C996.192 149.456 983.92 146.336 972.826 140.096C961.733 133.717 952.928 124.912 946.41 113.68C940.032 102.309 936.842 89.552 936.842 75.408C936.842 61.264 940.032 48.576 946.41 37.344C952.928 25.9733 961.733 17.168 972.826 10.928C983.92 4.54932 996.192 1.35999 1009.64 1.35999C1023.23 1.35999 1035.57 4.54932 1046.67 10.928C1057.76 17.168 1066.5 25.904 1072.87 37.136C1079.25 48.368 1082.44 61.1253 1082.44 75.408C1082.44 89.6907 1079.25 102.448 1072.87 113.68C1066.5 124.912 1057.76 133.717 1046.67 140.096C1035.57 146.336 1023.23 149.456 1009.64 149.456ZM1009.64 133.024C1019.77 133.024 1028.85 130.667 1036.89 125.952C1045.07 121.237 1051.45 114.512 1056.03 105.776C1060.74 97.04 1063.1 86.9173 1063.1 75.408C1063.1 63.76 1060.74 53.6373 1056.03 45.04C1051.45 36.304 1045.14 29.5787 1037.1 24.864C1029.06 20.1493 1019.9 17.792 1009.64 17.792C999.381 17.792 990.229 20.1493 982.186 24.864C974.144 29.5787 967.765 36.304 963.05 45.04C958.474 53.6373 956.186 63.76 956.186 75.408C956.186 86.9173 958.474 97.04 963.05 105.776C967.765 114.512 974.144 121.237 982.186 125.952C990.368 130.667 999.52 133.024 1009.64 133.024ZM1183.77 148L1149.24 88.72H1126.36V148H1107.43V3.02399H1154.23C1165.18 3.02399 1174.41 4.896 1181.89 8.64C1189.52 12.384 1195.21 17.4453 1198.95 23.824C1202.69 30.2027 1204.57 37.4827 1204.57 45.664C1204.57 55.648 1201.65 64.4533 1195.83 72.08C1190.14 79.7067 1181.55 84.768 1170.04 87.264L1206.44 148H1183.77ZM1126.36 73.536H1154.23C1164.49 73.536 1172.19 71.04 1177.32 66.048C1182.45 60.9173 1185.01 54.1227 1185.01 45.664C1185.01 37.0667 1182.45 30.4107 1177.32 25.696C1172.33 20.9813 1164.63 18.624 1154.23 18.624H1126.36V73.536ZM1252.9 18.416V66.88H1305.74V82.48H1252.9V132.4H1311.98V148H1233.98V2.816H1311.98V18.416H1252.9ZM1454.6 148H1435.67L1359.55 32.56V148H1340.62V2.816H1359.55L1435.67 118.048V2.816H1454.6V148ZM1505.8 3.02399V148H1486.87V3.02399H1505.8ZM1623.75 115.76H1560.52L1548.87 148H1528.9L1581.32 3.856H1603.16L1655.37 148H1635.4L1623.75 115.76ZM1618.34 100.368L1592.14 27.152L1565.93 100.368H1618.34Z" fill="#AD884E"/>
<path d="M20.7487 18.416V17.416H19.7487V18.416H20.7487ZM20.7487 66.88H19.7487V67.88H20.7487V66.88ZM73.5807 66.88H74.5807V65.88H73.5807V66.88ZM73.5807 82.48V83.48H74.5807V82.48H73.5807ZM20.7487 82.48V81.48H19.7487V82.48H20.7487ZM20.7487 132.4H19.7487V133.4H20.7487V132.4ZM79.8207 132.4H80.8207V131.4H79.8207V132.4ZM79.8207 148V149H80.8207V148H79.8207ZM1.82069 148H0.820688V149H1.82069V148ZM1.82069 2.816V1.816H0.820688V2.816H1.82069ZM79.8207 2.816H80.8207V1.816H79.8207V2.816ZM79.8207 18.416V19.416H80.8207V18.416H79.8207ZM19.7487 18.416V66.88H21.7487V18.416H19.7487ZM20.7487 67.88H73.5807V65.88H20.7487V67.88ZM72.5807 66.88V82.48H74.5807V66.88H72.5807ZM73.5807 81.48H20.7487V83.48H73.5807V81.48ZM19.7487 82.48V132.4H21.7487V82.48H19.7487ZM20.7487 133.4H79.8207V131.4H20.7487V133.4ZM78.8207 132.4V148H80.8207V132.4H78.8207ZM79.8207 147H1.82069V149H79.8207V147ZM2.82069 148V2.816H0.820688V148H2.82069ZM1.82069 3.816H79.8207V1.816H1.82069V3.816ZM78.8207 2.816V18.416H80.8207V2.816H78.8207ZM79.8207 17.416H20.7487V19.416H79.8207V17.416ZM126.973 3.02399H127.973V2.02399H126.973V3.02399ZM136.333 123.456L135.626 124.163L135.634 124.171L136.333 123.456ZM188.749 123.456L188.05 122.741L188.042 122.749L188.749 123.456ZM198.317 3.02399V2.02399H197.317V3.02399H198.317ZM217.245 3.02399H218.245V2.02399H217.245V3.02399ZM209.965 125.12L210.825 125.63L210.829 125.624L209.965 125.12ZM190.205 143.424L189.77 142.524L189.764 142.527L190.205 143.424ZM134.669 143.424L134.228 144.321L134.234 144.324L134.669 143.424ZM115.117 125.12L114.247 125.613L114.252 125.622L114.257 125.63L115.117 125.12ZM108.045 3.02399V2.02399H107.045V3.02399H108.045ZM125.973 3.02399V94.752H127.973V3.02399H125.973ZM125.973 94.752C125.973 107.791 129.127 117.664 135.626 124.163L137.04 122.749C131.06 116.768 127.973 107.505 127.973 94.752H125.973ZM135.634 124.171C142.245 130.638 151.327 133.816 162.749 133.816V131.816C151.708 131.816 143.179 128.754 137.033 122.741L135.634 124.171ZM162.749 133.816C174.036 133.816 182.984 130.636 189.456 124.163L188.042 122.749C182.035 128.756 173.649 131.816 162.749 131.816V133.816ZM189.449 124.171C196.091 117.672 199.317 107.797 199.317 94.752H197.317C197.317 107.499 194.165 116.76 188.05 122.741L189.449 124.171ZM199.317 94.752V3.02399H197.317V94.752H199.317ZM198.317 4.02399H217.245V2.02399H198.317V4.02399ZM216.245 3.02399V94.544H218.245V3.02399H216.245ZM216.245 94.544C216.245 106.475 213.846 116.483 209.102 124.616L210.829 125.624C215.792 117.117 218.245 106.741 218.245 94.544H216.245ZM209.105 124.61C204.349 132.627 197.908 138.59 189.77 142.524L190.64 144.324C199.143 140.215 205.875 133.975 210.825 125.63L209.105 124.61ZM189.764 142.527C181.737 146.472 172.669 148.456 162.541 148.456V150.456C172.936 150.456 182.311 148.418 190.646 144.321L189.764 142.527ZM162.541 148.456C152.414 148.456 143.274 146.472 135.104 142.524L134.234 144.324C142.704 148.418 152.146 150.456 162.541 150.456V148.456ZM135.11 142.527C127.111 138.595 120.736 132.632 115.977 124.61L114.257 125.63C119.205 133.971 125.865 140.211 134.228 144.321L135.11 142.527ZM115.987 124.627C111.377 116.492 109.045 106.48 109.045 94.544H107.045C107.045 106.736 109.428 117.108 114.247 125.613L115.987 124.627ZM109.045 94.544V3.02399H107.045V94.544H109.045ZM108.045 4.02399H126.973V2.02399H108.045V4.02399ZM362.805 148V149H363.805V148H362.805ZM343.877 148L343.042 148.551L343.338 149H343.877V148ZM267.749 32.56L268.583 32.0095L266.749 29.2272V32.56H267.749ZM267.749 148V149H268.749V148H267.749ZM248.821 148H247.821V149H248.821V148ZM248.821 2.816V1.816H247.821V2.816H248.821ZM267.749 2.816L268.583 2.26478L268.287 1.816H267.749V2.816ZM343.877 118.048L343.042 118.599L344.877 121.376V118.048H343.877ZM343.877 2.816V1.816H342.877V2.816H343.877ZM362.805 2.816H363.805V1.816H362.805V2.816ZM362.805 147H343.877V149H362.805V147ZM344.712 147.449L268.583 32.0095L266.914 33.1105L343.042 148.551L344.712 147.449ZM266.749 32.56V148H268.749V32.56H266.749ZM267.749 147H248.821V149H267.749V147ZM249.821 148V2.816H247.821V148H249.821ZM248.821 3.816H267.749V1.816H248.821V3.816ZM266.914 3.36722L343.042 118.599L344.711 117.497L268.583 2.26478L266.914 3.36722ZM344.877 118.048V2.816H342.877V118.048H344.877ZM343.877 3.816H362.805V1.816H343.877V3.816ZM361.805 2.816V148H363.805V2.816H361.805ZM413.999 18.416V17.416H412.999V18.416H413.999ZM413.999 66.88H412.999V67.88H413.999V66.88ZM466.831 66.88H467.831V65.88H466.831V66.88ZM466.831 82.48V83.48H467.831V82.48H466.831ZM413.999 82.48V81.48H412.999V82.48H413.999ZM413.999 132.4H412.999V133.4H413.999V132.4ZM473.071 132.4H474.071V131.4H473.071V132.4ZM473.071 148V149H474.071V148H473.071ZM395.071 148H394.071V149H395.071V148ZM395.071 2.816V1.816H394.071V2.816H395.071ZM473.071 2.816H474.071V1.816H473.071V2.816ZM473.071 18.416V19.416H474.071V18.416H473.071ZM412.999 18.416V66.88H414.999V18.416H412.999ZM413.999 67.88H466.831V65.88H413.999V67.88ZM465.831 66.88V82.48H467.831V66.88H465.831ZM466.831 81.48H413.999V83.48H466.831V81.48ZM412.999 82.48V132.4H414.999V82.48H412.999ZM413.999 133.4H473.071V131.4H413.999V133.4ZM472.071 132.4V148H474.071V132.4H472.071ZM473.071 147H395.071V149H473.071V147ZM396.071 148V2.816H394.071V148H396.071ZM395.071 3.816H473.071V1.816H395.071V3.816ZM472.071 2.816V18.416H474.071V2.816H472.071ZM473.071 17.416H413.999V19.416H473.071V17.416ZM520.639 3.02399H521.639V2.02399H520.639V3.02399ZM520.639 148V149H521.639V148H520.639ZM501.711 148H500.711V149H501.711V148ZM501.711 3.02399V2.02399H500.711V3.02399H501.711ZM519.639 3.02399V148H521.639V3.02399H519.639ZM520.639 147H501.711V149H520.639V147ZM502.711 148V3.02399H500.711V148H502.711ZM501.711 4.02399H520.639V2.02399H501.711V4.02399ZM629.235 148L628.371 148.503L628.66 149H629.235V148ZM594.707 88.72L595.571 88.2167L595.282 87.72H594.707V88.72ZM571.827 88.72V87.72H570.827V88.72H571.827ZM571.827 148V149H572.827V148H571.827ZM552.899 148H551.899V149H552.899V148ZM552.899 3.02399V2.02399H551.899V3.02399H552.899ZM627.363 8.64L626.916 9.53445L626.922 9.53766L627.363 8.64ZM641.299 72.08L640.504 71.473L640.497 71.4823L641.299 72.08ZM615.507 87.264L615.295 86.2867L613.932 86.5822L614.649 87.7781L615.507 87.264ZM651.907 148V149H653.672L652.765 147.486L651.907 148ZM571.827 73.536H570.827V74.536H571.827V73.536ZM622.787 66.048L623.484 66.7648L623.494 66.7551L622.787 66.048ZM622.787 25.696L622.1 26.4231L622.11 26.4323L622.787 25.696ZM571.827 18.624V17.624H570.827V18.624H571.827ZM630.099 147.497L595.571 88.2167L593.843 89.2233L628.371 148.503L630.099 147.497ZM594.707 87.72H571.827V89.72H594.707V87.72ZM570.827 88.72V148H572.827V88.72H570.827ZM571.827 147H552.899V149H571.827V147ZM553.899 148V3.02399H551.899V148H553.899ZM552.899 4.02399H599.699V2.02399H552.899V4.02399ZM599.699 4.02399C610.544 4.02399 619.603 5.87788 626.916 9.53442L627.81 7.74557C620.147 3.91411 610.763 2.02399 599.699 2.02399V4.02399ZM626.922 9.53766C634.4 13.2085 639.926 18.1446 643.556 24.3302L645.281 23.3178C641.424 16.746 635.579 11.5595 627.803 7.74233L626.922 9.53766ZM643.556 24.3302C647.201 30.5395 649.035 37.6412 649.035 45.664H651.035C651.035 37.3241 649.125 29.8659 645.281 23.3178L643.556 24.3302ZM649.035 45.664C649.035 55.4382 646.189 64.0282 640.504 71.4731L642.094 72.6869C648.056 64.8785 651.035 55.8578 651.035 45.664H649.035ZM640.497 71.4823C634.988 78.8724 626.627 83.8292 615.295 86.2867L615.719 88.2413C627.406 85.7067 636.239 80.5409 642.101 72.6777L640.497 71.4823ZM614.649 87.7781L651.049 148.514L652.765 147.486L616.365 86.7499L614.649 87.7781ZM651.907 147H629.235V149H651.907V147ZM571.827 74.536H599.699V72.536H571.827V74.536ZM599.699 74.536C610.108 74.536 618.099 72.0043 623.484 66.7647L622.089 65.3313C617.213 70.0756 609.813 72.536 599.699 72.536V74.536ZM623.494 66.7551C628.843 61.4058 631.483 54.3404 631.483 45.664H629.483C629.483 53.9049 626.992 60.4289 622.08 65.3409L623.494 66.7551ZM631.483 45.664C631.483 36.8572 628.847 29.9066 623.463 24.9597L622.11 26.4323C626.988 30.9147 629.483 37.2762 629.483 45.664H631.483ZM623.473 24.969C618.22 20.0073 610.226 17.624 599.699 17.624V19.624C609.972 19.624 617.37 21.9554 622.1 26.423L623.473 24.969ZM599.699 17.624H571.827V19.624H599.699V17.624ZM570.827 18.624V73.536H572.827V18.624H570.827ZM763.894 75.616L764.589 76.3352L764.589 76.335L763.894 75.616ZM698.374 87.472V86.472H697.374V87.472H698.374ZM698.374 148V149H699.374V148H698.374ZM679.446 148H678.446V149H679.446V148ZM679.446 3.02399V2.02399H678.446V3.02399H679.446ZM763.478 14.88L762.795 15.6107L762.801 15.6162L763.478 14.88ZM749.542 65.008L750.217 65.7451L749.542 65.008ZM698.374 18.624V17.624H697.374V18.624H698.374ZM698.374 71.872H697.374V72.872H698.374V71.872ZM775.374 45.456C775.374 57.2618 771.315 67.0516 763.199 74.897L764.589 76.335C773.113 68.0951 777.374 57.7782 777.374 45.456H775.374ZM763.199 74.8968C755.278 82.5495 743.028 86.472 726.246 86.472V88.472C743.298 88.472 756.147 84.4905 764.589 76.3352L763.199 74.8968ZM726.246 86.472H698.374V88.472H726.246V86.472ZM697.374 87.472V148H699.374V87.472H697.374ZM698.374 147H679.446V149H698.374V147ZM680.446 148V3.02399H678.446V148H680.446ZM679.446 4.02399H726.246V2.02399H679.446V4.02399ZM726.246 4.02399C742.46 4.02399 754.586 7.94006 762.795 15.6106L764.16 14.1493C755.452 6.01193 742.757 2.02399 726.246 2.02399V4.02399ZM762.801 15.6162C771.177 23.3167 775.374 33.2342 775.374 45.456H777.374C777.374 32.7178 772.973 22.2513 764.154 14.1438L762.801 15.6162ZM726.246 72.872C736.901 72.872 744.962 70.5629 750.217 65.7451L748.866 64.2708C744.138 68.6051 736.668 70.872 726.246 70.872V72.872ZM750.217 65.7451C755.465 60.9345 758.03 54.1202 758.03 45.456H756.03C756.03 53.7092 753.602 59.9295 748.866 64.2708L750.217 65.7451ZM758.03 45.456C758.03 36.3194 755.403 29.2954 749.991 24.5782C744.605 19.8838 736.63 17.624 726.246 17.624V19.624C736.384 19.624 743.801 21.8362 748.677 26.0858C753.526 30.3126 756.03 36.7046 756.03 45.456H758.03ZM726.246 17.624H698.374V19.624H726.246V17.624ZM697.374 18.624V71.872H699.374V18.624H697.374ZM698.374 72.872H726.246V70.872H698.374V72.872ZM911.595 3.02399H912.595V2.02399H911.595V3.02399ZM911.595 148V149H912.595V148H911.595ZM892.667 148H891.667V149H892.667V148ZM892.667 82.272H893.667V81.272H892.667V82.272ZM818.827 82.272V81.272H817.827V82.272H818.827ZM818.827 148V149H819.827V148H818.827ZM799.899 148H798.899V149H799.899V148ZM799.899 3.02399V2.02399H798.899V3.02399H799.899ZM818.827 3.02399H819.827V2.02399H818.827V3.02399ZM818.827 66.672H817.827V67.672H818.827V66.672ZM892.667 66.672V67.672H893.667V66.672H892.667ZM892.667 3.02399V2.02399H891.667V3.02399H892.667ZM910.595 3.02399V148H912.595V3.02399H910.595ZM911.595 147H892.667V149H911.595V147ZM893.667 148V82.272H891.667V148H893.667ZM892.667 81.272H818.827V83.272H892.667V81.272ZM817.827 82.272V148H819.827V82.272H817.827ZM818.827 147H799.899V149H818.827V147ZM800.899 148V3.02399H798.899V148H800.899ZM799.899 4.02399H818.827V2.02399H799.899V4.02399ZM817.827 3.02399V66.672H819.827V3.02399H817.827ZM818.827 67.672H892.667V65.672H818.827V67.672ZM893.667 66.672V3.02399H891.667V66.672H893.667ZM892.667 4.02399H911.595V2.02399H892.667V4.02399ZM972.826 140.096L972.328 140.963L972.336 140.968L972.826 140.096ZM946.41 113.68L945.538 114.169L945.542 114.176L945.545 114.182L946.41 113.68ZM946.41 37.344L945.543 36.8467L945.541 36.8502L946.41 37.344ZM972.826 10.928L973.317 11.7996L973.325 11.7949L972.826 10.928ZM1046.67 10.928L1046.17 11.7949L1046.18 11.7996L1046.67 10.928ZM1072.87 37.136L1073.74 36.6422L1072.87 37.136ZM1072.87 113.68L1072 113.186L1072.87 113.68ZM1046.67 140.096L1047.16 140.968L1047.16 140.963L1046.67 140.096ZM1036.89 125.952L1036.39 125.086L1036.38 125.089L1036.89 125.952ZM1056.03 105.776L1055.15 105.301L1055.14 105.312L1056.03 105.776ZM1056.03 45.04L1055.14 45.504L1055.15 45.5125L1055.15 45.5208L1056.03 45.04ZM1037.1 24.864L1036.59 25.7267L1037.1 24.864ZM982.186 24.864L982.692 25.7267L982.186 24.864ZM963.05 45.04L962.17 44.5651L962.168 44.5701L963.05 45.04ZM963.05 105.776L962.165 106.24L962.17 106.251L963.05 105.776ZM982.186 125.952L981.681 126.815L981.687 126.818L982.186 125.952ZM1009.64 148.456C996.353 148.456 984.252 145.375 973.317 139.224L972.336 140.968C983.588 147.297 996.03 150.456 1009.64 150.456V148.456ZM973.325 139.229C962.386 132.939 953.706 124.261 947.275 113.178L945.545 114.182C952.149 125.563 961.08 134.495 972.328 140.963L973.325 139.229ZM947.283 113.191C940.995 101.982 937.842 89.3956 937.842 75.408H935.842C935.842 89.7084 939.069 102.637 945.538 114.169L947.283 113.191ZM937.842 75.408C937.842 61.4202 940.995 48.9052 947.28 37.8378L945.541 36.8502C939.069 48.2467 935.842 61.1078 935.842 75.408H937.842ZM947.278 37.8413C953.708 26.6222 962.385 17.9484 973.317 11.7996L972.336 10.0564C961.081 16.3876 952.147 25.3244 945.543 36.8467L947.278 37.8413ZM973.325 11.7949C984.259 5.50795 996.357 2.35999 1009.64 2.35999V0.359993C996.026 0.359993 983.581 3.59069 972.328 10.0611L973.325 11.7949ZM1009.64 2.35999C1023.07 2.35999 1035.24 5.50887 1046.17 11.7949L1047.16 10.0611C1035.91 3.58978 1023.4 0.359993 1009.64 0.359993V2.35999ZM1046.18 11.7996C1057.11 17.9491 1065.71 26.5534 1072 37.6298L1073.74 36.6422C1067.28 25.2546 1058.41 16.3869 1047.16 10.0564L1046.18 11.7996ZM1072 37.6298C1078.29 48.6958 1081.44 61.2797 1081.44 75.408H1083.44C1083.44 60.971 1080.22 48.0402 1073.74 36.6422L1072 37.6298ZM1081.44 75.408C1081.44 89.5363 1078.29 102.12 1072 113.186L1073.74 114.174C1080.22 102.776 1083.44 89.845 1083.44 75.408H1081.44ZM1072 113.186C1065.71 124.264 1057.1 132.94 1046.17 139.229L1047.16 140.963C1058.41 134.494 1067.28 125.56 1073.74 114.174L1072 113.186ZM1046.18 139.224C1035.24 145.375 1023.07 148.456 1009.64 148.456V150.456C1023.39 150.456 1035.9 147.297 1047.16 140.968L1046.18 139.224ZM1009.64 134.024C1019.93 134.024 1029.19 131.627 1037.4 126.815L1036.38 125.089C1028.51 129.706 1019.6 132.024 1009.64 132.024V134.024ZM1037.39 126.818C1045.74 122.005 1052.25 115.136 1056.91 106.24L1055.14 105.312C1050.65 113.888 1044.4 120.47 1036.39 125.086L1037.39 126.818ZM1056.91 106.251C1061.71 97.3473 1064.1 87.0565 1064.1 75.408H1062.1C1062.1 86.7781 1059.77 96.7327 1055.15 105.301L1056.91 106.251ZM1064.1 75.408C1064.1 63.6235 1061.71 53.3293 1056.9 44.5592L1055.15 45.5208C1059.77 53.9454 1062.1 63.8965 1062.1 75.408H1064.1ZM1056.91 44.576C1052.25 35.6842 1045.82 28.8162 1037.6 24.0013L1036.59 25.7267C1044.46 30.3411 1050.65 36.9238 1055.14 45.504L1056.91 44.576ZM1037.6 24.0013C1029.39 19.1878 1020.06 16.792 1009.64 16.792V18.792C1019.74 18.792 1028.72 21.1108 1036.59 25.7267L1037.6 24.0013ZM1009.64 16.792C999.222 16.792 989.892 19.1878 981.681 24.0013L982.692 25.7267C990.566 21.1108 999.54 18.792 1009.64 18.792V16.792ZM981.681 24.0013C973.47 28.8146 966.966 35.6789 962.17 44.5651L963.93 45.5149C968.564 36.9291 974.818 30.3427 982.692 25.7267L981.681 24.0013ZM962.168 44.5701C957.501 53.3379 955.186 63.6281 955.186 75.408H957.186C957.186 63.8919 959.448 53.9367 963.933 45.5098L962.168 44.5701ZM955.186 75.408C955.186 87.0519 957.502 97.3387 962.165 106.24L963.936 105.312C959.447 96.7413 957.186 86.7827 957.186 75.408H955.186ZM962.17 106.251C966.966 115.137 973.47 122.001 981.681 126.815L982.692 125.089C974.818 120.473 968.564 113.887 963.93 105.301L962.17 106.251ZM981.687 126.818C990.031 131.627 999.358 134.024 1009.64 134.024V132.024C999.682 132.024 990.704 129.706 982.686 125.086L981.687 126.818ZM1183.77 148L1182.9 148.503L1183.19 149H1183.77V148ZM1149.24 88.72L1150.1 88.2167L1149.81 87.72H1149.24V88.72ZM1126.36 88.72V87.72H1125.36V88.72H1126.36ZM1126.36 148V149H1127.36V148H1126.36ZM1107.43 148H1106.43V149H1107.43V148ZM1107.43 3.02399V2.02399H1106.43V3.02399H1107.43ZM1181.89 8.64L1181.45 9.53445L1181.45 9.53766L1181.89 8.64ZM1195.83 72.08L1195.04 71.473L1195.03 71.4823L1195.83 72.08ZM1170.04 87.264L1169.83 86.2867L1168.46 86.5822L1169.18 87.7781L1170.04 87.264ZM1206.44 148V149H1208.2L1207.3 147.486L1206.44 148ZM1126.36 73.536H1125.36V74.536H1126.36V73.536ZM1177.32 66.048L1178.02 66.7648L1178.03 66.7551L1177.32 66.048ZM1177.32 25.696L1176.63 26.4231L1176.64 26.4323L1177.32 25.696ZM1126.36 18.624V17.624H1125.36V18.624H1126.36ZM1184.63 147.497L1150.1 88.2167L1148.37 89.2233L1182.9 148.503L1184.63 147.497ZM1149.24 87.72H1126.36V89.72H1149.24V87.72ZM1125.36 88.72V148H1127.36V88.72H1125.36ZM1126.36 147H1107.43V149H1126.36V147ZM1108.43 148V3.02399H1106.43V148H1108.43ZM1107.43 4.02399H1154.23V2.02399H1107.43V4.02399ZM1154.23 4.02399C1165.08 4.02399 1174.13 5.87788 1181.45 9.53442L1182.34 7.74557C1174.68 3.91411 1165.29 2.02399 1154.23 2.02399V4.02399ZM1181.45 9.53766C1188.93 13.2085 1194.46 18.1446 1198.09 24.3302L1199.81 23.3178C1195.96 16.746 1190.11 11.5595 1182.33 7.74233L1181.45 9.53766ZM1198.09 24.3302C1201.73 30.5395 1203.57 37.6412 1203.57 45.664H1205.57C1205.57 37.3241 1203.66 29.8659 1199.81 23.3178L1198.09 24.3302ZM1203.57 45.664C1203.57 55.4382 1200.72 64.0282 1195.04 71.4731L1196.62 72.6869C1202.59 64.8785 1205.57 55.8578 1205.57 45.664H1203.57ZM1195.03 71.4823C1189.52 78.8724 1181.16 83.8292 1169.83 86.2867L1170.25 88.2413C1181.94 85.7067 1190.77 80.5409 1196.63 72.6777L1195.03 71.4823ZM1169.18 87.7781L1205.58 148.514L1207.3 147.486L1170.9 86.7499L1169.18 87.7781ZM1206.44 147H1183.77V149H1206.44V147ZM1126.36 74.536H1154.23V72.536H1126.36V74.536ZM1154.23 74.536C1164.64 74.536 1172.63 72.0043 1178.02 66.7647L1176.62 65.3313C1171.74 70.0756 1164.34 72.536 1154.23 72.536V74.536ZM1178.03 66.7551C1183.37 61.4058 1186.01 54.3404 1186.01 45.664H1184.01C1184.01 53.9049 1181.52 60.4289 1176.61 65.3409L1178.03 66.7551ZM1186.01 45.664C1186.01 36.8572 1183.38 29.9066 1177.99 24.9597L1176.64 26.4323C1181.52 30.9147 1184.01 37.2762 1184.01 45.664H1186.01ZM1178 24.969C1172.75 20.0073 1164.76 17.624 1154.23 17.624V19.624C1164.5 19.624 1171.9 21.9554 1176.63 26.423L1178 24.969ZM1154.23 17.624H1126.36V19.624H1154.23V17.624ZM1125.36 18.624V73.536H1127.36V18.624H1125.36ZM1252.9 18.416V17.416H1251.9V18.416H1252.9ZM1252.9 66.88H1251.9V67.88H1252.9V66.88ZM1305.74 66.88H1306.74V65.88H1305.74V66.88ZM1305.74 82.48V83.48H1306.74V82.48H1305.74ZM1252.9 82.48V81.48H1251.9V82.48H1252.9ZM1252.9 132.4H1251.9V133.4H1252.9V132.4ZM1311.98 132.4H1312.98V131.4H1311.98V132.4ZM1311.98 148V149H1312.98V148H1311.98ZM1233.98 148H1232.98V149H1233.98V148ZM1233.98 2.816V1.816H1232.98V2.816H1233.98ZM1311.98 2.816H1312.98V1.816H1311.98V2.816ZM1311.98 18.416V19.416H1312.98V18.416H1311.98ZM1251.9 18.416V66.88H1253.9V18.416H1251.9ZM1252.9 67.88H1305.74V65.88H1252.9V67.88ZM1304.74 66.88V82.48H1306.74V66.88H1304.74ZM1305.74 81.48H1252.9V83.48H1305.74V81.48ZM1251.9 82.48V132.4H1253.9V82.48H1251.9ZM1252.9 133.4H1311.98V131.4H1252.9V133.4ZM1310.98 132.4V148H1312.98V132.4H1310.98ZM1311.98 147H1233.98V149H1311.98V147ZM1234.98 148V2.816H1232.98V148H1234.98ZM1233.98 3.816H1311.98V1.816H1233.98V3.816ZM1310.98 2.816V18.416H1312.98V2.816H1310.98ZM1311.98 17.416H1252.9V19.416H1311.98V17.416ZM1454.6 148V149H1455.6V148H1454.6ZM1435.67 148L1434.84 148.551L1435.14 149H1435.67V148ZM1359.55 32.56L1360.38 32.0095L1358.55 29.2272V32.56H1359.55ZM1359.55 148V149H1360.55V148H1359.55ZM1340.62 148H1339.62V149H1340.62V148ZM1340.62 2.816V1.816H1339.62V2.816H1340.62ZM1359.55 2.816L1360.38 2.26478L1360.08 1.816H1359.55V2.816ZM1435.67 118.048L1434.84 118.599L1436.67 121.376V118.048H1435.67ZM1435.67 2.816V1.816H1434.67V2.816H1435.67ZM1454.6 2.816H1455.6V1.816H1454.6V2.816ZM1454.6 147H1435.67V149H1454.6V147ZM1436.51 147.449L1360.38 32.0095L1358.71 33.1105L1434.84 148.551L1436.51 147.449ZM1358.55 32.56V148H1360.55V32.56H1358.55ZM1359.55 147H1340.62V149H1359.55V147ZM1341.62 148V2.816H1339.62V148H1341.62ZM1340.62 3.816H1359.55V1.816H1340.62V3.816ZM1358.71 3.36722L1434.84 118.599L1436.51 117.497L1360.38 2.26478L1358.71 3.36722ZM1436.67 118.048V2.816H1434.67V118.048H1436.67ZM1435.67 3.816H1454.6V1.816H1435.67V3.816ZM1453.6 2.816V148H1455.6V2.816H1453.6ZM1505.8 3.02399H1506.8V2.02399H1505.8V3.02399ZM1505.8 148V149H1506.8V148H1505.8ZM1486.87 148H1485.87V149H1486.87V148ZM1486.87 3.02399V2.02399H1485.87V3.02399H1486.87ZM1504.8 3.02399V148H1506.8V3.02399H1504.8ZM1505.8 147H1486.87V149H1505.8V147ZM1487.87 148V3.02399H1485.87V148H1487.87ZM1486.87 4.02399H1505.8V2.02399H1486.87V4.02399ZM1623.75 115.76L1624.69 115.42L1624.45 114.76H1623.75V115.76ZM1560.52 115.76V114.76H1559.82L1559.58 115.42L1560.52 115.76ZM1548.87 148V149H1549.57L1549.81 148.34L1548.87 148ZM1528.9 148L1527.96 147.658L1527.48 149H1528.9V148ZM1581.32 3.856V2.856H1580.62L1580.38 3.51425L1581.32 3.856ZM1603.16 3.856L1604.1 3.51545L1603.86 2.856H1603.16V3.856ZM1655.37 148V149H1656.79L1656.31 147.659L1655.37 148ZM1635.4 148L1634.46 148.34L1634.7 149H1635.4V148ZM1618.34 100.368V101.368H1619.76L1619.28 100.031L1618.34 100.368ZM1592.14 27.152L1593.08 26.815L1592.14 24.1848L1591.19 26.815L1592.14 27.152ZM1565.93 100.368L1564.99 100.031L1564.51 101.368H1565.93V100.368ZM1623.75 114.76H1560.52V116.76H1623.75V114.76ZM1559.58 115.42L1547.93 147.66L1549.81 148.34L1561.46 116.1L1559.58 115.42ZM1548.87 147H1528.9V149H1548.87V147ZM1529.84 148.342L1582.26 4.19774L1580.38 3.51425L1527.96 147.658L1529.84 148.342ZM1581.32 4.856H1603.16V2.856H1581.32V4.856ZM1602.22 4.19654L1654.43 148.341L1656.31 147.659L1604.1 3.51545L1602.22 4.19654ZM1655.37 147H1635.4V149H1655.37V147ZM1636.34 147.66L1624.69 115.42L1622.81 116.1L1634.46 148.34L1636.34 147.66ZM1619.28 100.031L1593.08 26.815L1591.19 27.489L1617.4 100.705L1619.28 100.031ZM1591.19 26.815L1564.99 100.031L1566.87 100.705L1593.08 27.489L1591.19 26.815ZM1565.93 101.368H1618.34V99.368H1565.93V101.368Z" fill="black" fill-opacity="0.2"/>
</svg>
